<svg xmlns="http://www.w3.org/2000/svg" xmlns:xlink="http://www.w3.org/1999/xlink" width="1080" zoomAndPan="magnify" viewBox="0 0 810 809.999993" height="1080" preserveAspectRatio="xMidYMid meet" version="1.0"><rect x="-81" width="972" fill="#ffffff" y="-80.999999" height="971.999992" fill-opacity="1"/><rect x="-81" width="972" fill="#ffffff" y="-80.999999" height="971.999992" fill-opacity="1"/><path fill="#6730a8" d="M 524.796875 195.003906 C 524.027344 196.796875 522.746094 198.078125 521.207031 199.105469 C 519.160156 200.386719 516.339844 200.640625 514.035156 199.617188 C 472.265625 182.960938 432.289062 174.761719 395.132812 175.785156 C 390.523438 175.785156 386.679688 172.199219 386.679688 167.585938 C 386.421875 162.972656 390.265625 159.386719 394.621094 159.128906 C 434.085938 158.359375 476.363281 166.816406 520.183594 184.242188 C 524.285156 186.035156 526.332031 190.648438 524.796875 195.003906 Z M 405.128906 0 C 516.851562 0 618.070312 45.355469 691.355469 118.644531 C 764.898438 191.929688 810 293.148438 810 405.128906 C 810 516.851562 764.898438 618.070312 691.355469 691.355469 C 618.070312 764.898438 516.851562 810 405.128906 810 C 293.148438 810 191.929688 764.898438 118.644531 691.355469 C 45.355469 618.070312 0 516.851562 0 405.128906 C 0 293.148438 45.355469 191.929688 118.644531 118.644531 C 191.929688 45.355469 293.148438 0 405.128906 0 Z M 680.339844 129.660156 C 609.871094 59.191406 512.496094 15.632812 405.128906 15.632812 C 297.503906 15.632812 200.128906 59.191406 129.660156 129.660156 C 59.191406 200.128906 15.632812 297.503906 15.632812 405.128906 C 15.632812 512.496094 59.191406 609.871094 129.660156 680.339844 C 200.128906 750.808594 297.503906 794.367188 405.128906 794.367188 C 512.496094 794.367188 609.871094 750.808594 680.339844 680.339844 C 750.804688 609.871094 794.367188 512.496094 794.367188 405.128906 C 794.367188 297.503906 750.804688 200.128906 680.339844 129.660156 Z M 263.421875 609.359375 C 248.816406 617.8125 230.367188 623.453125 207.046875 624.734375 C 205 624.988281 202.691406 624.21875 201.15625 622.683594 C 200.898438 622.683594 200.898438 622.683594 200.898438 622.425781 C 195.515625 617.558594 198.847656 608.84375 206.023438 608.332031 C 273.417969 604.746094 291.097656 564.515625 305.960938 513.265625 C 306.984375 508.910156 311.339844 506.089844 315.441406 506.859375 C 320.308594 507.628906 323.386719 512.496094 321.847656 517.109375 C 311.339844 554.007812 297.503906 589.625 263.421875 609.359375 Z M 364.640625 520.953125 C 371.304688 484.050781 377.195312 452.019531 406.152344 441.773438 C 422.808594 436.132812 447.664062 435.621094 469.703125 465.859375 C 472.265625 469.445312 477.390625 470.214844 481.234375 467.652344 C 484.820312 464.832031 485.589844 459.707031 483.027344 456.121094 C 461.503906 426.398438 431.523438 415.632812 400.773438 426.140625 C 362.589844 439.464844 355.414062 479.441406 348.496094 518.132812 C 338.761719 572.203125 328.765625 627.808594 244.972656 639.082031 C 237.285156 640.109375 235.234375 650.101562 241.640625 654.199219 C 241.640625 654.199219 241.640625 654.199219 241.898438 654.199219 C 243.4375 655.226562 245.484375 655.738281 247.28125 655.480469 C 270.085938 652.40625 288.023438 646.257812 302.628906 637.800781 C 348.496094 611.40625 357.210938 562.71875 364.640625 520.953125 Z M 538.378906 604.234375 C 540.171875 604.488281 541.964844 603.976562 543.503906 603.207031 C 545.550781 601.925781 547.089844 599.875 547.601562 597.058594 C 557.59375 528.894531 542.988281 468.421875 505.320312 422.296875 C 474.828125 384.882812 423.578125 372.070312 380.527344 390.777344 C 343.117188 407.179688 327.742188 440.746094 318.003906 471.753906 C 316.464844 475.851562 318.261719 480.722656 322.359375 482.257812 C 326.972656 484.308594 332.097656 481.746094 333.378906 477.132812 C 342.605469 448.433594 355.671875 419.734375 387.191406 405.898438 C 423.320312 390.265625 466.628906 401.285156 492.507812 432.804688 C 527.101562 475.082031 540.425781 530.691406 531.203125 593.984375 C 530.691406 598.59375 533.765625 603.71875 538.378906 604.234375 Z M 357.464844 658.8125 C 360.796875 655.738281 362.078125 650.613281 359.515625 647.027344 C 356.695312 643.183594 351.058594 642.414062 347.472656 645.488281 C 335.429688 655.738281 319.796875 663.167969 300.578125 667.527344 C 292.636719 669.320312 291.609375 680.339844 299.296875 683.15625 C 299.554688 683.15625 299.554688 683.15625 299.554688 683.15625 C 301.089844 683.925781 302.886719 683.925781 304.421875 683.667969 C 319.027344 680.339844 331.585938 675.46875 342.605469 669.0625 C 347.984375 665.988281 352.851562 662.65625 357.464844 658.8125 Z M 446.128906 341.578125 C 441.515625 340.554688 436.902344 343.886719 436.390625 348.753906 C 435.878906 353.109375 439.210938 356.953125 443.566406 357.976562 C 471.496094 364.128906 496.863281 379.757812 515.058594 402.054688 C 542.476562 435.621094 559.644531 474.828125 566.308594 518.644531 C 566.820312 522.746094 570.152344 526.078125 574.507812 526.332031 C 576.046875 526.332031 577.328125 525.820312 578.609375 525.050781 C 581.425781 523.515625 583.21875 520.183594 582.707031 516.851562 C 575.789062 469.703125 557.339844 427.679688 527.871094 391.546875 C 507.113281 366.179688 478.160156 348.496094 446.128906 341.578125 Z M 168.355469 587.320312 C 168.355469 587.320312 168.609375 587.320312 168.609375 587.578125 C 170.148438 589.371094 172.453125 590.652344 175.015625 590.652344 C 200.386719 590.394531 219.605469 585.269531 234.722656 576.558594 C 270.597656 555.800781 282.898438 515.058594 294.941406 475.339844 C 308.265625 431.265625 322.105469 385.652344 368.996094 365.152344 C 373.097656 363.359375 374.890625 358.492188 373.097656 354.390625 C 371.304688 350.035156 366.433594 348.242188 362.335938 350.035156 C 308.265625 373.351562 292.890625 425.117188 279.054688 470.472656 C 262.652344 525.308594 248.046875 573.484375 174.761719 573.996094 C 168.097656 573.996094 164.253906 581.9375 168.355469 587.320312 Z M 537.351562 642.671875 C 538.632812 638.058594 535.816406 633.1875 530.945312 632.164062 C 526.847656 631.140625 522.746094 634.214844 521.464844 638.570312 C 518.390625 648.308594 514.800781 658.300781 510.957031 668.292969 C 508.394531 674.957031 515.058594 681.621094 521.722656 678.800781 C 521.722656 678.800781 521.976562 678.800781 521.976562 678.800781 C 524.027344 677.777344 525.566406 676.238281 526.332031 674.1875 C 530.433594 663.683594 534.277344 653.175781 537.351562 642.671875 Z M 435.878906 546.578125 L 435.878906 545.039062 C 435.621094 540.683594 432.289062 536.839844 427.679688 536.839844 C 422.808594 536.582031 418.964844 540.683594 419.222656 545.550781 L 419.476562 547.601562 C 421.785156 580.65625 425.882812 644.207031 366.433594 685.464844 C 360.285156 689.820312 362.847656 699.558594 370.277344 700.324219 C 370.535156 700.324219 370.535156 700.324219 370.535156 700.324219 C 372.585938 700.582031 374.632812 700.070312 376.171875 698.789062 C 442.796875 652.40625 438.183594 580.402344 435.878906 546.578125 Z M 574.765625 647.027344 C 582.453125 616.277344 586.039062 585.527344 585.78125 556.3125 C 585.78125 551.957031 582.453125 548.113281 578.09375 547.601562 C 573.226562 547.347656 569.125 551.191406 569.125 556.058594 C 569.640625 584.246094 566.050781 613.714844 558.621094 643.4375 C 557.082031 650.613281 564.769531 655.996094 570.921875 652.152344 C 570.921875 652.152344 571.175781 652.152344 571.175781 652.152344 C 572.96875 650.871094 574.25 649.078125 574.765625 647.027344 Z M 453.046875 484.820312 C 446.898438 475.339844 436.648438 469.957031 425.371094 470.472656 C 414.097656 470.726562 404.101562 476.621094 398.722656 486.359375 C 389.496094 502.757812 387.191406 524.539062 384.371094 547.601562 C 382.066406 569.125 379.503906 591.421875 371.558594 611.152344 C 369.765625 615.25 371.046875 620.375 374.890625 622.425781 C 379.246094 624.734375 384.628906 622.683594 386.421875 618.070312 C 395.648438 596.03125 398.464844 571.433594 401.027344 549.394531 C 403.335938 528.128906 405.640625 507.882812 413.070312 494.558594 C 415.632812 489.945312 420.503906 487.128906 425.882812 486.871094 C 431.265625 486.613281 436.132812 489.175781 439.210938 493.789062 C 466.628906 536.582031 474.828125 620.632812 421.273438 688.28125 C 416.914062 693.917969 421.273438 702.121094 428.191406 701.351562 C 428.191406 701.351562 428.445312 701.351562 428.445312 701.351562 C 430.753906 701.351562 432.804688 700.070312 434.339844 698.277344 C 492.765625 624.476562 483.285156 531.972656 453.046875 484.820312 Z M 504.296875 500.453125 C 503.015625 496.097656 498.914062 493.277344 494.558594 494.300781 C 489.691406 495.328125 486.871094 500.195312 488.410156 504.808594 C 503.269531 552.726562 500.707031 620.632812 468.164062 681.875 C 464.832031 688.027344 470.472656 695.199219 477.390625 693.664062 C 477.390625 693.40625 477.644531 693.40625 477.644531 693.40625 C 479.953125 692.894531 481.746094 691.355469 482.769531 689.308594 C 517.363281 624.21875 520.183594 551.957031 504.296875 500.453125 Z M 120.949219 412.816406 C 132.738281 405.898438 143.753906 395.648438 152.980469 379.757812 C 153.234375 379.503906 153.234375 379.246094 153.492188 378.992188 C 159.128906 365.410156 165.535156 352.339844 171.941406 340.042969 C 173.734375 336.710938 172.96875 332.097656 169.890625 329.535156 C 165.535156 326.203125 159.640625 327.742188 157.335938 332.097656 C 150.671875 344.652344 144.523438 357.976562 138.375 372.070312 C 129.917969 386.421875 119.410156 395.132812 108.648438 400.515625 C 105.832031 402.054688 104.035156 404.871094 104.292969 407.945312 C 104.292969 407.945312 104.292969 407.945312 104.292969 408.203125 C 104.292969 414.097656 110.441406 417.941406 116.082031 415.378906 C 117.617188 414.609375 119.410156 413.585938 120.949219 412.816406 Z M 114.800781 363.871094 C 124.535156 357.210938 132.222656 341.324219 142.988281 319.285156 C 156.054688 292.378906 173.992188 255.480469 202.691406 221.910156 C 205.765625 218.578125 205.765625 213.199219 202.691406 210.125 C 199.105469 206.792969 193.722656 207.046875 190.648438 210.636719 C 160.15625 246 141.449219 284.179688 128.125 312.109375 C 124.023438 320.308594 120.4375 327.996094 116.847656 334.402344 C 112.75 342.089844 109.675781 350.292969 107.625 358.746094 C 106.597656 362.847656 111.210938 366.179688 114.800781 363.871094 Z M 232.929688 181.167969 C 235.75 184.753906 240.875 185.523438 244.71875 182.703125 C 256.761719 173.734375 269.574219 166.046875 283.152344 159.386719 C 338.503906 132.222656 391.546875 121.207031 441.515625 126.332031 C 443.308594 126.585938 445.101562 126.074219 446.382812 125.304688 C 448.691406 124.023438 450.226562 121.71875 450.484375 119.15625 C 450.996094 114.542969 447.664062 110.441406 443.054688 109.929688 C 390.265625 104.550781 333.890625 116.082031 275.980469 144.523438 C 261.371094 151.441406 247.535156 159.898438 234.722656 169.636719 C 231.136719 172.199219 230.367188 177.324219 232.929688 181.167969 Z M 254.964844 359.515625 C 272.136719 330.046875 292.890625 309.292969 320.308594 293.402344 C 350.035156 276.234375 381.808594 268.035156 414.609375 269.058594 C 416.148438 269.058594 417.683594 268.804688 418.964844 268.035156 C 421.273438 266.496094 422.808594 263.933594 423.066406 261.117188 C 423.066406 256.503906 419.734375 252.660156 415.121094 252.402344 C 379.246094 251.378906 344.652344 260.347656 311.855469 279.054688 C 282.128906 296.222656 259.324219 319.285156 240.617188 351.058594 C 238.3125 355.160156 239.847656 360.027344 243.691406 362.335938 C 247.535156 364.640625 252.660156 363.359375 254.964844 359.515625 Z M 639.082031 443.566406 C 639.59375 443.308594 639.851562 443.054688 640.363281 442.796875 C 643.695312 441.003906 645.234375 436.648438 643.695312 432.804688 C 633.1875 405.382812 618.582031 380.273438 600.902344 357.722656 C 561.4375 308.265625 511.726562 273.417969 460.476562 259.578125 C 455.863281 258.296875 451.507812 260.859375 450.226562 265.214844 C 448.945312 269.574219 451.507812 274.183594 456.121094 275.464844 C 503.785156 288.535156 550.675781 321.335938 587.832031 367.972656 C 604.746094 389.242188 618.328125 413.070312 628.320312 438.695312 C 630.113281 443.054688 634.726562 445.101562 639.082031 443.566406 Z M 618.328125 583.988281 C 620.121094 583.988281 621.65625 583.734375 622.9375 582.964844 C 625.246094 581.425781 627.039062 579.121094 627.039062 576.300781 C 632.164062 508.910156 618.328125 453.816406 582.453125 397.695312 C 579.890625 393.851562 574.765625 392.828125 570.921875 395.132812 C 567.078125 397.695312 566.050781 402.820312 568.613281 406.664062 C 602.4375 459.453125 615.25 511.472656 610.640625 575.019531 C 610.382812 579.632812 613.714844 583.734375 618.328125 583.988281 Z M 131.199219 438.953125 C 127.355469 441.773438 126.585938 446.898438 129.148438 450.484375 C 131.710938 454.070312 136.324219 455.097656 140.167969 452.789062 C 140.167969 452.789062 140.425781 452.535156 140.679688 452.535156 C 167.328125 433.570312 184.5 401.285156 202.691406 366.945312 C 219.859375 334.917969 237.542969 301.859375 264.703125 274.441406 C 267.777344 271.367188 267.777344 265.984375 264.703125 262.910156 C 261.371094 259.578125 256.246094 259.578125 252.917969 262.910156 C 224.21875 291.867188 205 327.742188 188.085938 359.257812 C 170.917969 391.546875 154.515625 422.296875 131.199219 438.953125 Z M 572.96875 288.535156 C 576.046875 284.949219 575.789062 279.824219 572.203125 276.746094 C 474.316406 190.136719 374.632812 176.296875 283.921875 237.03125 C 280.335938 239.59375 279.308594 244.71875 281.617188 248.5625 C 284.179688 252.402344 289.304688 253.429688 293.148438 250.867188 C 378.222656 193.980469 468.421875 206.792969 561.183594 289.046875 C 564 291.609375 567.84375 291.867188 570.921875 290.074219 C 571.6875 289.816406 572.457031 289.046875 572.96875 288.535156 Z M 191.929688 303.398438 C 192.953125 302.886719 193.980469 302.117188 194.75 300.835938 C 236.261719 237.285156 286.996094 197.566406 345.421875 182.449219 C 349.777344 181.421875 352.339844 176.8125 351.316406 172.453125 C 350.035156 168.097656 345.679688 165.28125 341.324219 166.5625 C 278.542969 182.449219 224.730469 224.730469 180.910156 291.867188 C 178.347656 295.710938 179.375 300.835938 183.21875 303.398438 C 186.035156 304.933594 189.367188 304.933594 191.929688 303.398438 Z M 663.9375 525.050781 C 663.167969 511.726562 661.375 497.890625 658.8125 484.050781 C 658.042969 479.953125 654.199219 476.621094 649.84375 477.132812 C 644.976562 477.644531 641.644531 482.257812 642.414062 486.871094 C 644.976562 499.941406 646.769531 513.007812 647.28125 526.078125 C 647.796875 534.789062 647.796875 543.503906 647.539062 552.214844 C 647.539062 560.414062 658.558594 563.746094 662.914062 556.570312 C 662.914062 556.570312 662.914062 556.3125 662.914062 556.3125 C 663.683594 555.03125 664.195312 553.75 664.195312 552.214844 C 664.449219 543.503906 664.195312 534.277344 663.9375 525.050781 Z M 572.714844 215.761719 C 568.871094 212.6875 563.234375 213.710938 560.671875 217.8125 C 558.363281 221.65625 559.644531 226.523438 562.976562 229.085938 C 620.632812 274.441406 673.164062 349.523438 696.996094 420.503906 C 698.53125 424.859375 705.195312 423.835938 705.449219 419.222656 C 705.707031 412.046875 705.964844 404.871094 705.964844 397.441406 C 705.964844 396.929688 705.707031 396.414062 705.449219 395.902344 C 678.289062 327.742188 627.808594 258.808594 572.714844 215.761719 Z M 503.269531 124.023438 C 498.914062 122.230469 493.789062 124.792969 492.507812 129.660156 C 491.484375 134.019531 494.046875 138.117188 498.144531 139.65625 C 557.339844 161.4375 613.96875 208.585938 667.011719 279.824219 C 670.34375 284.433594 677.519531 280.847656 675.726562 275.464844 C 672.90625 266.753906 669.574219 258.042969 665.730469 251.378906 C 614.738281 187.574219 560.414062 144.78125 503.269531 124.023438 Z M 613.96875 318.003906 C 610.640625 314.417969 605 314.160156 601.671875 318.003906 C 598.59375 321.078125 599.109375 326.203125 601.925781 329.277344 C 640.875 373.867188 666.5 426.140625 677.777344 485.078125 C 679.570312 493.535156 691.355469 494.300781 693.664062 486.101562 C 693.664062 485.847656 693.917969 485.847656 693.917969 485.589844 C 694.175781 484.308594 694.175781 483.027344 693.917969 481.746094 C 681.875 419.734375 655.226562 364.640625 613.96875 318.003906 Z M 171.171875 551.191406 C 173.480469 549.910156 174.761719 547.601562 175.273438 545.296875 C 176.042969 539.660156 170.917969 535.046875 165.535156 535.816406 C 160.667969 536.328125 155.542969 536.839844 150.160156 536.839844 C 143.753906 536.839844 139.910156 543.503906 142.988281 549.140625 C 144.523438 551.957031 147.34375 553.496094 150.417969 553.496094 C 156.566406 553.238281 162.71875 552.984375 168.097656 552.214844 C 169.378906 551.957031 170.40625 551.703125 171.171875 551.191406 Z M 227.804688 417.171875 C 229.597656 413.070312 228.316406 408.203125 224.472656 406.152344 C 220.117188 403.847656 214.734375 405.898438 212.941406 410.253906 C 193.980469 455.863281 178.859375 491.738281 130.6875 498.660156 C 125.5625 499.425781 122.488281 504.808594 124.28125 509.675781 C 125.5625 513.265625 129.40625 515.316406 132.992188 514.800781 C 147.085938 512.753906 158.875 508.652344 168.609375 503.015625 C 199.617188 485.078125 213.453125 451.765625 227.804688 417.171875 Z M 341.578125 333.890625 C 408.203125 299.808594 490.972656 315.441406 542.476562 371.558594 C 545.039062 374.378906 549.394531 374.890625 552.726562 373.097656 C 553.238281 372.839844 553.75 372.328125 554.007812 372.070312 C 557.59375 368.996094 557.59375 363.617188 554.519531 360.285156 C 498.144531 298.785156 407.433594 281.871094 334.148438 319.285156 C 277.773438 347.984375 260.347656 398.976562 245.230469 444.078125 C 233.699219 477.902344 223.703125 507.113281 199.617188 523.515625 C 195.773438 526.078125 195.003906 531.203125 197.3125 535.046875 C 199.875 538.632812 205.253906 539.660156 208.84375 537.097656 C 237.542969 517.878906 248.816406 484.566406 260.859375 449.203125 C 275.722656 405.128906 291.097656 359.773438 341.578125 333.890625 Z M 341.578125 333.890625 " fill-opacity="1" fill-rule="nonzero"/></svg>